<svg width="250" height="65" viewBox="0 0 250 65" fill="none" xmlns="http://www.w3.org/2000/svg">
<rect x="0.5" y="0.5" width="249" height="64" stroke="black"/>
<path d="M21.5935 19.8478L17.8884 19.3596V17.3255H29.6013V19.3596L25.8962 19.8478V45.1522L29.6013 45.5997V47.5525H17.9283V45.5591L21.5935 45.1522V19.8478Z" fill="black"/>
<path d="M36.9845 19.8478L33.7973 19.3596V17.3255H41.2075L54.4741 37.1785L56.7052 41.4908V19.8478L53.2391 19.3596V17.3255H62.6413V19.3596L59.4541 19.8478V47.5525H56.3068L42.7612 27.252L39.6936 21.8819V45.1522L43.4783 45.5591V47.5525H33.7973V45.5591L36.9845 45.1115V19.8478Z" fill="black"/>
<path d="M75.184 48C73.8029 48 72.5678 47.878 71.4789 47.6339C70.3899 47.3898 69.1947 47.0643 67.8933 46.6575C67.0965 46.3591 66.4989 46.1964 66.1005 46.1693L66.4192 38.8058H68.969L69.6463 44.0945C70.0978 44.5284 70.8282 44.9217 71.8374 45.2743C72.8733 45.5997 74.0021 45.7625 75.2238 45.7625C77.2424 45.7625 78.7696 45.3014 79.8054 44.3793C80.8678 43.4571 81.399 42.1824 81.399 40.5551C85.7814 39.294 81.1068 38.5888 80.5225 37.8294C79.9648 37.07 79.2078 36.4191 78.2516 35.8766C77.322 35.3342 76.0339 34.6968 74.3872 33.9646C72.8998 33.2865 71.5984 32.5949 70.4829 31.8898C69.3939 31.1846 68.4378 30.2489 67.6144 29.0827C66.8176 27.8893 66.4192 26.4654 66.4192 24.811C66.4192 23.3193 66.8043 21.9904 67.5746 20.8241C68.3714 19.6308 69.5002 18.6951 70.961 18.0171C72.4483 17.339 74.1747 17 76.1401 17C77.3619 17 78.4376 17.0949 79.3672 17.2848C80.3233 17.4746 81.399 17.7323 82.5942 18.0577C83.1254 18.2476 83.5769 18.3696 83.9487 18.4239L83.7097 25.2585H81.2795L80.4827 20.2546C80.2171 19.9834 79.6593 19.7257 78.8094 19.4816C77.9861 19.2375 77.083 19.1155 76.1003 19.1155C74.2677 19.1155 72.8733 19.5087 71.9171 20.2953C70.9875 21.0818 70.5227 22.2209 70.5227 23.7126C70.5227 24.7975 70.8016 25.706 71.3594 26.4383C71.9437 27.1706 72.6608 27.7944 73.5107 28.3097C74.3606 28.825 75.7152 29.5302 77.5744 30.4252C79.3008 31.266 80.7084 32.0254 81.7974 32.7034C82.8863 33.3815 83.8159 34.2765 84.5862 35.3885C85.383 36.4733 85.7814 37.7752 85.7814 39.294C85.7814 40.7314 85.383 42.1146 84.5862 43.4436C83.8159 44.7725 82.6207 45.871 81.0006 46.7388C79.407 47.5796 77.4681 48 75.184 48Z" fill="black"/>
<path d="M92.5043 19.8478L89.3968 19.3596V17.3255H94.6955C95.6517 17.3255 96.5946 17.2848 97.5242 17.2034C98.9584 17.0949 100.313 17.0407 101.588 17.0407C105.439 17.0678 109.755 19.2375 109.755 19.2375C109.755 19.2375 112.145 22.8447 112.145 25.7467C112.145 27.9164 111.654 29.8014 110.671 31.4016C109.689 33.0017 108.321 34.2222 106.568 35.063C104.841 35.9038 102.849 36.3241 100.592 36.3241C99.8216 36.3241 99.0381 36.3106 98.2413 36.2835C97.4445 36.2292 96.9531 36.1885 96.7672 36.1614V45.1115L102.225 45.5591V47.5525H89.1976V45.5591L92.5043 45.1522V19.8478ZM96.7672 33.9239C97.5109 34.0595 98.7857 34.1273 100.592 34.1273C102.69 34.1273 104.39 33.4764 105.691 32.1745C107.019 30.8727 107.683 28.7437 107.683 25.7874C107.683 23.4549 107.112 21.787 105.97 20.7835C104.828 19.7528 103.049 19.2375 100.632 19.2375C99.7817 19.2375 98.8787 19.2918 97.9226 19.4003C97.3382 19.4545 96.9531 19.4816 96.7672 19.4816V33.9239Z" fill="black"/>
<path d="M119.014 19.8478C119.014 19.8478 115.966 20.6629 115.309 19.3596V17.3255H127.022V19.3596L123.317 19.8478V45.1522L127.022 45.5997V47.5525H115.349V45.5591L119.014 45.1522V19.8478Z" fill="black"/>
<path d="M131.059 45.5591L134.365 45.1522V19.8478L131.258 19.3189V17.3255H136.477C137.221 17.3255 138.23 17.2712 139.505 17.1627C140.833 17.0542 141.869 17 142.612 17C146.517 17 149.292 17.6509 150.939 18.9528C152.612 20.2275 153.449 22.248 153.449 25.0144C153.449 26.9401 152.917 28.703 151.855 30.3031C150.819 31.9033 149.385 32.9882 147.552 33.5577C148.402 34.0188 149.186 34.8189 149.903 35.958C150.647 37.07 151.55 38.6295 152.612 40.6365C153.435 42.1553 154.06 43.2673 154.485 43.9724C154.936 44.6776 155.361 45.0709 155.759 45.1522L157.313 45.5591V47.5525H151.815C151.39 47.5525 150.912 47.0914 150.381 46.1693C149.85 45.22 149.146 43.769 148.27 41.8163C147.313 39.6737 146.477 37.9786 145.76 36.731C145.069 35.4563 144.378 34.6426 143.688 34.29C140.846 34.29 139.159 34.2765 138.628 34.2493V45.1522L142.572 45.5591V47.5525H131.059V45.5591ZM143.369 32.0932C145.069 32.0932 146.41 31.5236 147.393 30.3845C148.376 29.2454 148.867 27.5503 148.867 25.2992C148.867 23.3193 148.362 21.8141 147.353 20.7835C146.37 19.7257 144.657 19.1969 142.214 19.1969C141.364 19.1969 140.514 19.2511 139.664 19.3596C139.133 19.4138 138.788 19.4409 138.628 19.4409V32.0525C139.027 32.0796 139.85 32.0932 141.098 32.0932H143.369Z" fill="black"/>
<path d="M162.417 19.8478L159.15 19.3596V17.3255H179.428L179.986 23.6312H177.715L176.56 19.685L166.68 19.4409V30.9134L173.333 30.7913L173.891 27.4147H176.082V36.7717H173.891L173.333 33.273L166.68 33.1509V45.2743L177.914 44.8675L180.026 39.7415L182.376 40.4738L181.221 47.5525H159.11V45.5591L162.417 45.1522V19.8478Z" fill="black"/>
<path d="M188.367 19.8478L185.26 19.3596V17.3255H190.479C191.302 17.3255 192.484 17.2712 194.024 17.1627C195.565 17.0542 196.72 17 197.49 17C202.43 17 206.096 18.2747 208.486 20.8241C210.903 23.3465 212.112 26.8994 212.112 31.4829C212.112 34.6833 211.487 37.5311 210.239 40.0262C209.017 42.4943 207.291 44.4199 205.06 45.8031C202.829 47.1864 200.266 47.8779 197.371 47.8779C196.733 47.8779 195.644 47.8237 194.104 47.7152C192.51 47.6067 191.315 47.5525 190.518 47.5525H185.06V45.5591L188.367 45.1522V19.8478ZM192.59 45.2743C193.52 45.4912 194.715 45.5997 196.176 45.5997H197.371C199.363 45.5726 201.116 45.0573 202.63 44.0538C204.17 43.0503 205.365 41.5586 206.215 39.5787C207.065 37.5717 207.49 35.1444 207.49 32.2966C207.49 28.0114 206.574 24.7568 204.741 22.5328C202.935 20.3088 200.199 19.1969 196.534 19.1969C195.764 19.1969 194.848 19.2511 193.785 19.3596C193.334 19.4409 192.935 19.4816 192.59 19.4816V45.2743Z" fill="black"/>
<path d="M224.083 48C222.702 48 221.467 47.878 220.378 47.6339C219.289 47.3898 218.094 47.0643 216.793 46.6575C215.996 46.3591 215.398 46.1964 215 46.1693L215.319 38.8058H217.868L218.546 44.0945C218.997 44.5284 219.728 44.9217 220.737 45.2743C221.773 45.5997 222.902 45.7625 224.123 45.7625C226.142 45.7625 227.669 45.3014 228.705 44.3793C229.767 43.4571 230.298 42.1824 230.298 40.5551C234.681 39.294 230.006 38.5888 229.422 37.8294C228.864 37.07 228.107 36.4191 227.151 35.8766C226.222 35.3342 224.933 34.6968 223.287 33.9646C221.799 33.2865 220.498 32.5949 219.382 31.8898C218.293 31.1846 217.337 30.2489 216.514 29.0827C215.717 27.8893 215.319 26.4654 215.319 24.811C215.319 23.3193 215.704 21.9904 216.474 20.8241C217.271 19.6308 218.4 18.6951 219.86 18.0171C221.348 17.339 223.074 17 225.04 17C226.261 17 227.337 17.0949 228.267 17.2848C229.223 17.4746 230.298 17.7323 231.494 18.0577C232.025 18.2476 232.476 18.3696 232.848 18.4239L232.609 25.2585H230.179L229.382 20.2546C229.117 19.9834 228.559 19.7257 227.709 19.4816C226.886 19.2375 225.983 19.1155 225 19.1155C223.167 19.1155 221.773 19.5087 220.817 20.2953C219.887 21.0818 219.422 22.2209 219.422 23.7126C219.422 24.7975 219.701 25.706 220.259 26.4383C220.843 27.1706 221.56 27.7944 222.41 28.3097C223.26 28.825 224.615 29.5302 226.474 30.4252C228.2 31.266 229.608 32.0254 230.697 32.7034C231.786 33.3815 232.715 34.2765 233.486 35.3885C234.282 36.4733 234.681 37.7752 234.681 39.294C234.681 40.7314 234.282 42.1146 233.486 43.4436C232.715 44.7725 231.52 45.871 229.9 46.7388C228.306 47.5796 226.368 48 224.083 48Z" fill="black"/>
</svg>
